<svg xmlns="http://www.w3.org/2000/svg" height="256" width="256" viewBox="0 0 256 256"><title>house</title><g fill="#ffffff" class="nc-icon-wrapper"><path fill="none" d="M0 0h256v256H0z"/><path d="M152 208v-48a8 8 0 0 0-8-8h-32a8 8 0 0 0-8 8v48a8 8 0 0 1-8 8H48a8 8 0 0 1-8-8v-92.46a8 8 0 0 1 2.62-5.92l80-75.54a8 8 0 0 1 10.77 0l80 75.54a8 8 0 0 1 2.62 5.92V208a8 8 0 0 1-8 8H160a8 8 0 0 1-8-8z" fill="none" stroke="#ffffff" stroke-linecap="round" stroke-linejoin="round" stroke-width="16"/></g></svg>